# xmcd
#
# Track frame offsets: 
#        150
#        11327
#        21515
#        32319
#        45100
#        56017
#        64817
#        75355
#        85322
#        93812
#        104437
#        118585
#        130900
#        142435
#        154527
#
# Disc length: 2251 seconds
#
# Revision: 2
# Processed by: cddbd v1.5.2PL0 Copyright (c) Steve Scherf et al.
# Submitted via: ExactAudioCopy v0.99pb5
#
DISCID=b508c90f
DTITLE=Various Artist - Classic Country Vol. 18 The '50s Treasures Disc 2
DYEAR=2000
DGENRE=Country
TTITLE0=Tommy Collins - It Tickles
TTITLE1=Eddy Arnold - There's Been A Change In Me
TTITLE2=Faron Young - If You Ain't Lovin'
TTITLE3=Slim Whitman - Secret Love
TTITLE4=Hank Snow - Let Me Go Lover
TTITLE5=Johnnie And Jack - Oh Baby Mine (I Get So Lonely)
TTITLE6=George Jones - Treasure Of Love
TTITLE7=Johnny Cash - Ballad Of A Teenage Queen
TTITLE8=Ricky Nelson - Stood Up
TTITLE9=Everly Brothers - ('Til) I Kissed You
TTITLE10=Wynn Stewart - The Waltz Of The Angels
TTITLE11=Buck Owens - Under Your Spell Again
TTITLE12=Carl Smith - Loose Talk
TTITLE13=Kitty Wells - Amigo's Guitar
TTITLE14=Simon Crum - Country Music Is Here To Stay
EXTD=
EXTT0=
EXTT1=
EXTT2=
EXTT3=
EXTT4=
EXTT5=
EXTT6=
EXTT7=
EXTT8=
EXTT9=
EXTT10=
EXTT11=
EXTT12=
EXTT13=
EXTT14=
PLAYORDER=
